<svg xmlns="http://www.w3.org/2000/svg" xmlns:xlink="http://www.w3.org/1999/xlink" viewBox="0 0 16 16">
  <defs>
    <path id="date-a" d="M13,3 C13.8284271,2.99676183 14.5,3.66851593 14.5,4.5 L14.5,13.5 C14.5,14.3282459 13.8284271,15 13,15 L3,15 C2.17157288,15 1.5,14.3282459 1.5,13.5 L1.5,4.5 C1.5,3.66851593 2.17157288,2.99676183 3,3 L3.015625,3 L3.015625,1.5 C3.0078125,1.22391803 3.23167013,1 3.515625,1 C3.78395487,1 4.0078125,1.22391803 4.015625,1.5 L4.015625,3 L12,3 L12,1.515625 C12,1.23576939 12.2238576,1.01185135 12.5,1.015625 C12.7761424,1.01185135 13,1.23576939 13,1.515625 L13,3 Z M12.609375,4 C12.5737021,4.0077575 12.5373288,4.01184816 12.5,4.015625 C12.4626712,4.01184816 12.4262979,4.0077575 12.390625,4 L3,4 C2.72385763,4 2.5,4.22385763 2.5,4.5 L2.5,6 L13.5,6 L13.5,4.5 C13.5,4.22385763 13.2761424,4 13,4 L12.609375,4 L12.609375,4 Z M13.5,7 L2.5,7 L2.5,13.5 C2.5,13.7761424 2.72385763,14 3,14 L13,14 C13.2761424,14 13.5,13.7761424 13.5,13.5 L13.5,7 Z"/>
  </defs>
  <g fill="none" fill-rule="evenodd">
    <mask id="date-b" fill="#fff">
      <use xlink:href="#date-a"/>
    </mask>
    <g fill="currentColor" mask="url(#date-b)">
      <rect width="16" height="16"/>
    </g>
  </g>
</svg>
